{"title":"Thambadhya Ragasyam - B Grade Hot Tamil Movie.mkv","uid":6087933,"size":199008502,"categoryP":"porn","categoryS":"other","magnet":"?xt=urn:btih:2b863b96038d5220baaa13f24c9e552f6afbdcf9&amp;dn=Thambadhya+Ragasyam+-+B+Grade+Hot+Tamil+Movie.mkv&amp;tr=udp%3A%2F%2Ftracker.openbittorrent.com%3A80&amp;tr=udp%3A%2F%2Fopen.demonii.com%3A1337&amp;tr=udp%3A%2F%2Ftracker.coppersurfer.tk%3A6969&amp;tr=udp%3A%2F%2Fexodus.desync.com%3A6969","seeders":0,"leechers":1,"uploader":"amanrulz","files":1,"time":1294416286,"description":"mastitorrents.com\n &lt;a href=&quot;\nhttp://mastitorrents.com/forums/index.php&quot; rel=&quot;nofollow&quot; target=&quot;_NEW&quot;&gt;\nhttp://mastitorrents.com/forums/index.php&lt;/a&gt;\n\nGeneral\nComplete name : Thambadhya Ragasyam - B Grade Hot Tamil Movie.mkv\nFormat : Matroska\nFile size : 190 MiB\nDuration : 57mn 1s\nOverall bit rate : 465 Kbps\nWriting application : Lavf52.0.0\nWriting library : Lavf52.0.0\n\nVideo\nID : 1\nFormat : MPEG-4 Visual\nFormat profile : Simple@L1\nFormat settings, BVOP : No\nFormat settings, QPel : No\nFormat settings, GMC : No warppoints\nFormat settings, Matrix : Default (H.263)\nCodec ID : V_MPEG4/ISO/ASP\nCodec ID/Info : Advanced Simple Profile\nDuration : 57mn 1s\nBit rate : 328 Kbps\nWidth : 352 pixels\nHeight : 288 pixels\nDisplay aspect ratio : 4:3\nFrame rate mode : Constant\nFrame rate : 23.976 fps\nStandard : PAL\nColor space : YUV\nChroma subsampling : 4:2:0\nBit depth : 8 bits\nScan type : Progressive\nBits/(Pixel*Frame) : 0.135\nStream size : 134 MiB (71%)\nWriting library : Lavc52.48.0\n\n\nAudio\nID : 2\nFormat : MPEG Audio\nFormat version : Version 1\nFormat profile : Layer 2\nCodec ID : A_MPEG/L2\nCodec ID/Hint : MP2\nDuration : 57mn 1s\nBit rate mode : Constant\nBit rate : 128 Kbps\nChannel(s) : 2 channels\nSampling rate : 44.1 KHz\nBit depth : 16 bits\nStream size : 52.2 MiB (28%)\n","torrent":{"xt":"urn:btih:2b863b96038d5220baaa13f24c9e552f6afbdcf9","amp;dn":"Thambadhya+Ragasyam+-+B+Grade+Hot+Tamil+Movie.mkv","amp;tr":["udp%3A%2F%2Ftracker.openbittorrent.com%3A80","udp%3A%2F%2Fopen.demonii.com%3A1337","udp%3A%2F%2Ftracker.coppersurfer.tk%3A6969","udp%3A%2F%2Fexodus.desync.com%3A6969"],"infoHash":"2b863b96038d5220baaa13f24c9e552f6afbdcf9","infoHashBuffer":{"type":"Buffer","data":[43,134,59,150,3,141,82,32,186,170,19,242,76,158,85,47,106,251,220,249]},"announce":[],"urlList":[]}}